HIERARCHY
ROOT joint_0
{
	OFFSET 0.000000 0.000000 0.000000
	CHANNELS 6 Xposition Yposition Zposition Zrotation Yrotation Xrotation 
	JOINT joint_1
	{
		OFFSET 0.511002 1.944000 108.288940
		CHANNELS 3 Zrotation Yrotation Xrotation
		JOINT joint_2
		{
			OFFSET -9.074005 1.512993 98.440063
			CHANNELS 3 Zrotation Yrotation Xrotation
			JOINT joint_3
			{
				OFFSET -8.590996 1.815002 98.366943
				CHANNELS 3 Zrotation Yrotation Xrotation
				JOINT joint_4
				{
					OFFSET 2.489998 3.531998 136.462036
					CHANNELS 3 Zrotation Yrotation Xrotation
					JOINT joint_5
					{
						OFFSET 22.708000 2.955002 80.357056
						CHANNELS 3 Zrotation Yrotation Xrotation
						End Site
						{
							OFFSET 0.000000 0.000000 0.000000
						}
					}
				}
				JOINT joint_6
				{
					OFFSET 2.860001 -27.684998 77.234009
					CHANNELS 3 Zrotation Yrotation Xrotation
					JOINT joint_7
					{
						OFFSET 5.449997 -131.244003 -18.851929
						CHANNELS 3 Zrotation Yrotation Xrotation
						JOINT joint_8
						{
							OFFSET 35.757000 -24.661995 -264.074097
							CHANNELS 3 Zrotation Yrotation Xrotation
							JOINT joint_9
							{
								OFFSET 49.392001 -1.747002 -239.960938
								CHANNELS 3 Zrotation Yrotation Xrotation
								End Site
								{
									OFFSET 0.000000 0.000000 0.000000
								}
							}
						}
					}
				}
				JOINT joint_10
				{
					OFFSET -0.127998 31.625000 75.753052
					CHANNELS 3 Zrotation Yrotation Xrotation
					JOINT joint_11
					{
						OFFSET -5.618004 131.132996 -19.557007
						CHANNELS 3 Zrotation Yrotation Xrotation
						JOINT joint_12
						{
							OFFSET 46.488998 30.127991 -261.826050
							CHANNELS 3 Zrotation Yrotation Xrotation
							JOINT joint_13
							{
								OFFSET 66.021003 0.474030 -235.934937
								CHANNELS 3 Zrotation Yrotation Xrotation
								End Site
								{
									OFFSET 0.000000 0.000000 0.000000
								}
							}
						}
					}
				}
			}
		}
	}
	JOINT joint_14
	{
		OFFSET 15.887001 -78.871004 -94.561035
		CHANNELS 3 Zrotation Yrotation Xrotation
		JOINT joint_15
		{
			OFFSET -4.133003 6.714001 -473.615967
			CHANNELS 3 Zrotation Yrotation Xrotation
			JOINT joint_16
			{
				OFFSET -19.541000 5.340000 -399.613007
				CHANNELS 3 Zrotation Yrotation Xrotation
				JOINT joint_17
				{
					OFFSET 164.317001 41.657999 -73.195000
					CHANNELS 3 Zrotation Yrotation Xrotation
					End Site
					{
						OFFSET 0.000000 0.000000 0.000000
					}
				}
			}
		}
	}
	JOINT joint_18
	{
		OFFSET 6.513000 77.960991 -96.406982
		CHANNELS 3 Zrotation Yrotation Xrotation
		JOINT joint_19
		{
			OFFSET -10.660004 -8.518997 -473.485016
			CHANNELS 3 Zrotation Yrotation Xrotation
			JOINT joint_20
			{
				OFFSET -36.967995 -11.098999 -398.260010
				CHANNELS 3 Zrotation Yrotation Xrotation
				JOINT joint_21
				{
					OFFSET 166.067997 30.363998 -74.785000
					CHANNELS 3 Zrotation Yrotation Xrotation
					End Site
					{
						OFFSET 0.000000 0.000000 0.000000
					}
				}
			}
		}
	}
}
MOTION
Frames: 10
Frame Time: 0.016667
-2191.944824 715.332336 1017.598022 19.436824 7.986994 5.529915 -5.329119 11.268303 4.727936 -0.378881 -1.744166 -0.776064 0.380249 2.038329 0.797318 -0.828898 -7.057376 2.363068 0.000000 0.000000 0.000000 6.479702 -15.946931 -1.062338 -34.949276 -6.423915 -7.198069 171.450328 -86.839153 -92.140611 0.000000 0.000000 0.000000 -13.724790 29.147997 -3.557656 17.771478 4.242361 6.863065 -174.383548 -62.865214 -163.210259 0.000000 0.000000 0.000000 -6.277505 -34.453607 -10.856132 -6.461104 33.234593 -1.742432 -6.517179 -6.846781 -0.757313 0.000000 0.000000 0.000000 -8.853338 -18.243171 21.456640 -7.898365 42.946748 -16.943842 -4.141652 8.699044 -3.507221 0.000000 0.000000 0.000000 
-2176.816406 710.838257 1017.354980 19.661095 7.650824 5.819152 -5.714889 11.336187 4.427520 -0.745236 -1.819093 -0.779512 0.031382 2.093941 0.811581 -0.858984 -6.519980 2.396094 0.000000 0.000000 0.000000 6.417748 -16.259423 -0.151274 -36.568826 -6.382009 -7.336484 173.695257 -82.506106 -93.491889 0.000000 0.000000 0.000000 -13.403608 29.167040 -3.302214 18.638430 3.982674 7.227321 -173.881669 -62.766696 -163.383470 0.000000 0.000000 0.000000 -6.418778 -33.976248 -10.784849 -6.675058 34.874987 -1.922677 -6.789458 -8.067831 -0.545480 0.000000 0.000000 0.000000 -8.261122 -17.886311 21.901331 -6.952193 42.766476 -19.207406 -2.394483 6.009517 -2.239547 0.000000 0.000000 0.000000 
-2163.238770 707.488586 1018.564026 20.661774 7.605358 6.062229 -6.073715 10.956376 4.552178 -1.346178 -1.803857 -0.730986 -0.573398 2.004952 0.843659 -0.794939 -6.161504 2.246594 0.000000 0.000000 0.000000 6.562466 -14.658877 0.194842 -32.499355 -6.132884 -7.572837 173.429776 -84.468782 -97.822190 0.000000 0.000000 0.000000 -13.097349 28.291729 -3.193540 18.814036 3.960495 7.627292 -173.458340 -63.535195 -163.436960 0.000000 0.000000 0.000000 -7.057054 -33.483622 -10.516451 -7.117996 35.692709 -2.434727 -7.214752 -8.915785 -0.500160 0.000000 0.000000 0.000000 -7.420760 -18.576790 21.642913 -5.868979 42.202439 -20.094841 -0.020950 4.338217 -1.015045 0.000000 0.000000 0.000000 
-2150.639893 705.174072 1021.148987 21.997724 7.725746 6.292184 -6.350078 10.329689 4.904973 -2.056569 -1.737048 -0.684008 -1.302111 1.836852 0.892184 -0.691987 -5.899179 2.035421 0.000000 0.000000 0.000000 6.726600 -12.802333 0.260945 -28.056586 -5.842795 -7.675835 175.827996 -87.741211 -105.525696 0.000000 0.000000 0.000000 -12.835232 26.830220 -3.208789 18.578994 4.083619 8.082699 -173.112369 -64.853864 -163.562308 0.000000 0.000000 0.000000 -7.920427 -32.889454 -10.135361 -7.639347 35.815268 -3.125175 -7.671464 -9.537083 -0.538563 0.000000 0.000000 0.000000 -6.314314 -19.690087 20.798455 -4.582526 41.059405 -20.200436 2.587039 3.018288 0.200033 0.000000 0.000000 0.000000 
-2138.413574 703.740295 1024.766968 23.157562 7.799291 6.500131 -6.540388 9.881389 5.288190 -2.690008 -1.695313 -0.665713 -1.958063 1.696728 0.956209 -0.601486 -5.722412 1.871168 0.000000 0.000000 0.000000 6.830478 -11.323256 0.189354 -24.828948 -5.667673 -7.810009 177.811328 -89.282807 -112.067068 0.000000 0.000000 0.000000 -12.639767 25.109323 -3.282121 18.155708 4.254343 8.430225 -172.875624 -66.286312 -163.793776 0.000000 0.000000 0.000000 -8.697700 -32.179268 -9.823744 -8.027460 35.683467 -3.681396 -7.949988 -9.733306 -0.620138 0.000000 0.000000 0.000000 -5.320196 -20.567023 19.574514 -3.495178 39.563616 -19.885643 4.410757 2.055113 1.066455 0.000000 0.000000 0.000000 
-2126.443848 703.358643 1029.784058 23.987473 7.763404 6.683494 -6.656266 9.785824 5.690207 -3.178816 -1.692558 -0.699325 -2.463128 1.634440 1.048626 -0.537460 -5.673515 1.798884 0.000000 0.000000 0.000000 6.924514 -10.139170 -0.122017 -22.817228 -5.537673 -8.085306 -1.138060 -89.807548 63.368928 0.000000 0.000000 0.000000 -12.575605 23.099748 -3.451386 17.545346 4.483773 8.623723 -172.780078 -67.847840 -164.172330 0.000000 0.000000 0.000000 -9.266447 -31.191635 -9.633573 -8.222587 35.141679 -4.029865 -8.003863 -9.439230 -0.744765 0.000000 0.000000 0.000000 -4.524647 -21.140903 17.950876 -2.774911 37.893044 -18.974904 5.188746 1.823807 1.420176 0.000000 0.000000 0.000000 
-2114.847656 703.857666 1035.833008 24.642331 7.690515 6.840690 -6.671251 9.856160 6.136870 -3.587657 -1.707461 -0.757746 -2.907181 1.599863 1.156822 -0.489666 -5.709880 1.779532 0.000000 0.000000 0.000000 6.956405 -9.193542 -0.578777 -21.377352 -5.428492 -8.427500 -0.570077 -88.799897 59.739447 0.000000 0.000000 0.000000 -12.572557 20.890591 -3.694636 16.872431 4.661671 8.700737 -172.825701 -69.585294 -164.685688 0.000000 0.000000 0.000000 -9.732529 -30.088190 -9.524278 -8.277043 34.344657 -4.242751 -7.884655 -8.735669 -0.906942 0.000000 0.000000 0.000000 -3.804321 -21.505781 15.992002 -2.180024 35.883220 -17.499095 5.390722 2.194323 1.468083 0.000000 0.000000 0.000000 
-2103.360840 704.571167 1041.472046 25.074692 7.628365 6.958739 -6.526340 9.881203 6.504116 -3.928922 -1.722957 -0.797188 -3.329047 1.574581 1.246352 -0.464398 -5.691890 1.781293 0.000000 0.000000 0.000000 6.781813 -8.762887 -0.807735 -20.214979 -5.579375 -8.793936 -0.183757 -87.447281 56.747898 0.000000 0.000000 0.000000 -12.487395 18.898544 -3.831448 16.395593 4.627387 8.639953 -172.943749 -71.048815 -165.224521 0.000000 0.000000 0.000000 -10.141879 -29.400103 -9.546728 -8.155217 34.224589 -4.226234 -7.521885 -7.677300 -1.046553 0.000000 0.000000 0.000000 -3.242669 -21.470909 14.137621 -1.588735 33.424100 -16.101883 5.243287 2.474534 1.423746 0.000000 0.000000 0.000000 
-2091.907959 705.362183 1046.608032 25.260706 7.641138 7.065252 -6.187976 9.758310 6.692254 -4.201971 -1.739624 -0.774830 -3.730380 1.562229 1.293654 -0.462772 -5.572024 1.795608 0.000000 0.000000 0.000000 6.282281 -8.962097 -0.576941 -19.080296 -6.224933 -9.242102 0.240693 -85.458754 54.080888 0.000000 0.000000 0.000000 -12.291184 17.203065 -3.785943 16.088552 4.365542 8.370221 -173.106474 -72.006504 -165.683388 0.000000 0.000000 0.000000 -10.547257 -29.277582 -9.714695 -7.853998 34.901917 -3.948631 -6.903254 -6.180239 -1.177604 0.000000 0.000000 0.000000 -2.979841 -20.923554 12.497282 -1.154685 30.049488 -15.128705 4.421574 2.305276 1.217031 0.000000 0.000000 0.000000 
-2080.566406 706.368530 1051.333984 25.177215 7.663137 7.101734 -5.709086 9.630279 6.844470 -4.387617 -1.774469 -0.757950 -4.055594 1.560751 1.315583 -0.476945 -5.399773 1.822806 0.000000 0.000000 0.000000 5.594333 -9.541923 -0.104378 -17.991229 -7.187681 -9.734893 0.690031 -83.111270 51.621761 0.000000 0.000000 0.000000 -12.036162 15.674995 -3.640710 15.860624 3.967531 7.974457 -173.304099 -72.660020 -166.121901 0.000000 0.000000 0.000000 -10.905842 -29.564680 -9.961873 -7.373600 36.221250 -3.471823 -6.010897 -4.250223 -1.293146 0.000000 0.000000 0.000000 -2.877700 -20.016049 10.997919 -0.829929 26.135208 -14.134193 3.339938 2.267425 0.865132 0.000000 0.000000 0.000000 
